<svg id="Layer_1" data-name="Layer 1" xmlns="http://www.w3.org/2000/svg" xmlns:xlink="http://www.w3.org/1999/xlink" viewBox="0 0 80.28 24"><defs><style>.cls-1{fill:url(#linear-gradient);}.cls-2{fill:#51aaf4;}</style><linearGradient id="linear-gradient" y1="12" x2="20.65" y2="12" gradientUnits="userSpaceOnUse"><stop offset="0" stop-color="#4197ef"/><stop offset="1" stop-color="#61c3ff"/></linearGradient></defs><title>Blue Gradient</title><path class="cls-1" d="M17.63,3a10.32,10.32,0,0,0-7.31-3,10.59,10.59,0,0,0-2,.18A10.47,10.47,0,0,0,3,3a10.32,10.32,0,0,0,4.76,17.3.48.48,0,0,1,.34.66A20.52,20.52,0,0,1,7,23.26a.49.49,0,0,0,.57.71A26.78,26.78,0,0,0,17.21,18l.42-.39c.13-.14.26-.27.39-.42A10.32,10.32,0,0,0,17.63,3ZM7.38,11.84a1,1,0,1,1-2,0v-3a1,1,0,1,1,2,0Zm3.94,2.52a1,1,0,0,1-1,1,1,1,0,0,1-1-1V6.29a1,1,0,0,1,1-1,1,1,0,0,1,1,1Zm3.93-5a1,1,0,1,1-2,0v-3a1,1,0,0,1,2,0Z"/><path class="cls-2" d="M31.36,8.67A3.42,3.42,0,0,1,32,10.93v4.22h-2V10.93a1.45,1.45,0,0,0-.38-1.11,1.5,1.5,0,0,0-1-.34,1.37,1.37,0,0,0-1,.43,1.94,1.94,0,0,0-.4,1.46v3.78H25.36V5.32H27.3V8.64a2.61,2.61,0,0,1,.88-.56,2.83,2.83,0,0,1,1-.21A2.68,2.68,0,0,1,31.36,8.67Z"/><path class="cls-2" d="M39.25,14.43a2.07,2.07,0,0,1-.86.61,3.33,3.33,0,0,1-1.31.26,3.61,3.61,0,0,1-1.92-.49,3.3,3.3,0,0,1-1.24-1.35,4,4,0,0,1-.43-1.88,4,4,0,0,1,.43-1.89,3.3,3.3,0,0,1,1.24-1.35,3.61,3.61,0,0,1,1.92-.49,3.14,3.14,0,0,1,1.3.25,2.2,2.2,0,0,1,.87.64V8h1.92v7.15H39.25Zm-.46-4.32a2.11,2.11,0,0,0-2.86,0,2.09,2.09,0,0,0-.53,1.47A2,2,0,0,0,35.94,13a1.86,1.86,0,0,0,1.42.57,1.92,1.92,0,0,0,1.44-.54,2,2,0,0,0,.52-1.47A2,2,0,0,0,38.79,10.11Z"/><path class="cls-2" d="M43,5.33h2v9.82H43Z"/><path class="cls-2" d="M48.31,14.81a3.71,3.71,0,0,1-1.4-1.35,3.6,3.6,0,0,1,0-3.73,3.81,3.81,0,0,1,1.4-1.36,4,4,0,0,1,1.95-.5,4,4,0,0,1,3.37,1.86,3.6,3.6,0,0,1,0,3.73,4,4,0,0,1-3.37,1.86A3.89,3.89,0,0,1,48.31,14.81Zm1-5a1.91,1.91,0,0,0-.71.73,2,2,0,0,0-.26,1,2.08,2.08,0,0,0,.25,1,2,2,0,0,0,2.7.73,2,2,0,0,0,.71-.73,2.14,2.14,0,0,0,.26-1,2.09,2.09,0,0,0-.26-1,2,2,0,0,0-.71-.73,2,2,0,0,0-2,0Z"/><path class="cls-2" d="M57.92,15.15H56V9.78h-.81V8.12H56A3,3,0,0,1,56.76,6a2.83,2.83,0,0,1,2.05-.72,4,4,0,0,1,.86.11L59.57,7A1.61,1.61,0,0,0,59,6.89c-.46,0-.77.11-.9.35a1.69,1.69,0,0,0-.21.88H59.2V9.78H57.92Z"/><path class="cls-2" d="M62.44,7a1.06,1.06,0,0,1-.76.3,1.08,1.08,0,0,1-.77-.3,1,1,0,0,1-.32-.75,1,1,0,0,1,.32-.73,1,1,0,0,1,.77-.31,1,1,0,0,1,.76.31,1,1,0,0,1,.31.73A1.06,1.06,0,0,1,62.44,7ZM60.71,8h1.95v7.13H60.71Z"/><path class="cls-2" d="M70.47,8.67a3.42,3.42,0,0,1,.67,2.26v4.22h-2V10.93c0-1-.46-1.45-1.38-1.45a1.37,1.37,0,0,0-1,.43,1.94,1.94,0,0,0-.4,1.46v3.78H64.48V8h1.93v.64a2.61,2.61,0,0,1,.88-.56,2.83,2.83,0,0,1,1-.21A2.66,2.66,0,0,1,70.47,8.67Z"/><path class="cls-2" d="M78.36,14.43a2.1,2.1,0,0,1-.85.61,3.41,3.41,0,0,1-1.32.26,3.61,3.61,0,0,1-1.92-.49A3.3,3.3,0,0,1,73,13.46a4.35,4.35,0,0,1,0-3.77,3.3,3.3,0,0,1,1.24-1.35,3.61,3.61,0,0,1,1.92-.49,3.11,3.11,0,0,1,1.3.25,2.2,2.2,0,0,1,.87.64V8h1.92v7.15H78.36Zm-.46-4.32a2.11,2.11,0,0,0-2.86,0,2.09,2.09,0,0,0-.53,1.47A2,2,0,0,0,75.05,13a1.88,1.88,0,0,0,1.42.57,1.92,1.92,0,0,0,1.44-.54,2,2,0,0,0,.52-1.47A2,2,0,0,0,77.9,10.11Z"/></svg>